<svg width="20" height="20" viewBox="0 0 20 20" fill="none" xmlns="http://www.w3.org/2000/svg"><path d="M19.081 10l.878-2.288a.626.626 0 0 0-.19-.71L17.867 5.46l-.386-2.421a.625.625 0 0 0-.52-.519l-2.42-.385L12.998.231a.626.626 0 0 0-.708-.19L10 .921 7.712.042a.623.623 0 0 0-.709.19L5.461 2.136l-2.421.385a.626.626 0 0 0-.519.519L2.136 5.46.233 7.003a.625.625 0 0 0-.19.71L.92 10l-.877 2.288a.623.623 0 0 0 .19.709l1.903 1.541.385 2.421a.625.625 0 0 0 .519.52l2.421.385 1.542 1.902a.622.622 0 0 0 .71.19l2.288-.876 2.288.878a.628.628 0 0 0 .71-.192l1.541-1.902 2.422-.385a.626.626 0 0 0 .52-.52l.384-2.42 1.903-1.542a.624.624 0 0 0 .19-.709l-.878-2.288z" fill="#F44336"/><path d="M8.125 8.751A1.877 1.877 0 0 1 6.25 6.876c0-1.033.841-1.875 1.875-1.875S10 5.843 10 6.876a1.877 1.877 0 0 1-1.875 1.875zm0-2.5a.625.625 0 1 0 0 1.25.625.625 0 0 0 0-1.25zM11.875 15A1.877 1.877 0 0 1 10 13.125c0-1.034.841-1.875 1.875-1.875s1.875.841 1.875 1.875A1.877 1.877 0 0 1 11.875 15zm0-2.5a.627.627 0 0 0-.625.625c0 .344.281.625.625.625a.627.627 0 0 0 .625-.625.627.627 0 0 0-.625-.625zM6.875 15a.625.625 0 0 1-.507-.989l6.25-8.75a.625.625 0 1 1 1.017.727l-6.25 8.75a.627.627 0 0 1-.51.262z" fill="#FAFAFA"/></svg>