<svg width="16" height="16" viewBox="0 0 16 16" fill="none" xmlns="http://www.w3.org/2000/svg">
<path d="M15.1398 3.17223e-05H0.875016C0.623423 -0.00044418 0.39277 0.140105 0.277761 0.363937C0.161165 0.590783 0.181629 0.86395 0.330586 1.07112L5.55661 8.43299C5.55835 8.43552 5.56026 8.4379 5.562 8.44044C5.75188 8.69679 5.85452 9.00724 5.85515 9.32641V15.3285C5.85404 15.5063 5.92384 15.677 6.04916 15.8031C6.17448 15.9292 6.34486 16 6.52253 16C6.61295 16 6.70226 15.9819 6.7857 15.9473L9.72232 14.8275C9.98549 14.7472 10.1601 14.499 10.1601 14.1999V9.32641C10.1606 9.0074 10.2634 8.69679 10.4531 8.44044C10.4549 8.4379 10.4568 8.43552 10.4585 8.43299L15.6844 1.07081C15.8334 0.863791 15.8538 0.590783 15.7372 0.363937C15.6222 0.140105 15.3916 -0.00044418 15.1398 3.17223e-05ZM9.79831 7.95931C9.50642 8.35541 9.34858 8.83433 9.34763 9.32641V14.1013L6.66736 15.1232V9.32641C6.66641 8.83433 6.50857 8.35541 6.21652 7.95931L1.14295 0.812235H14.872L9.79831 7.95931Z" fill="#920D62"/>
</svg>
