<svg width="40" height="40" viewBox="0 0 40 40" fill="none" xmlns="http://www.w3.org/2000/svg">
<path d="M10.4916 7.54109C10.4916 8.6624 11.9008 9.5083 13.7703 9.5083C15.6398 9.5083 17.049 8.6624 17.049 7.54109C17.049 6.41978 15.6398 5.57388 13.7703 5.57388C11.9008 5.57388 10.4916 6.41978 10.4916 7.54109ZM13.7703 6.88535C15.0398 6.88535 15.7375 7.37781 15.7375 7.54109C15.7375 7.70437 15.0398 8.19683 13.7703 8.19683C12.5008 8.19683 11.8031 7.70437 11.8031 7.54109C11.8031 7.37781 12.5008 6.88535 13.7703 6.88535Z" fill="#920D62"/>
<path d="M22.9508 23.9344C22.9508 25.0557 24.36 25.9016 26.2295 25.9016C28.099 25.9016 29.5082 25.0557 29.5082 23.9344C29.5082 22.8131 28.099 21.9672 26.2295 21.9672C24.36 21.9672 22.9508 22.8131 22.9508 23.9344ZM28.1967 23.9344C28.1967 24.0977 27.499 24.5902 26.2295 24.5902C24.96 24.5902 24.2623 24.0977 24.2623 23.9344C24.2623 23.7711 24.96 23.2787 26.2295 23.2787C27.499 23.2787 28.1967 23.7711 28.1967 23.9344Z" fill="#920D62"/>
<path d="M39.3442 23.2787C39.3401 23.2324 39.3309 23.1866 39.3167 23.1423C39.4096 22.8234 39.2493 22.4853 38.9435 22.3554L35.3022 20.8203C34.954 19.9528 33.7121 19.3443 32.1311 19.3443C31.6622 19.3443 32.3068 19.562 29.4563 18.3607C29.2458 17.5364 28.2432 16.9115 26.8852 16.7587C26.8852 6.00461 26.9108 6.49182 26.834 6.30952C26.766 6.15541 26.6434 6.03187 26.4898 5.96264C26.3639 5.90821 26.4937 5.96264 22.8432 4.42428C22.495 3.55936 21.2531 2.95084 19.6721 2.95084C19.2032 2.95084 19.8478 3.16854 16.9973 1.96723C16.4334 -0.217031 11.1081 -0.22031 10.5435 1.96723C7.69896 3.16592 8.33896 2.95084 7.86879 2.95084C6.28781 2.95084 5.04912 3.55936 4.69764 4.42428C2.86814 5.19608 0.95994 5.99805 1.05174 5.96264C0.910722 6.0234 0.796871 6.13375 0.731743 6.2728C0.618301 6.49772 0.655678 4.97379 0.655678 28.5246C0.655588 28.7885 0.813737 29.0268 1.05699 29.1292C27.354 40.2013 25.9376 39.6721 26.2294 39.6721C26.4511 39.6721 25.6262 39.9817 38.9429 34.3751C39.0654 34.3311 39.1665 34.242 39.2255 34.1259C39.3895 33.8787 39.3442 34.6676 39.3442 23.2787ZM26.8852 28.6387L38.0327 23.9449V33.3351L26.8852 38.0289V28.6387ZM34.0983 21.3115C34.0983 21.4748 33.4006 21.9672 32.1311 21.9672C30.8616 21.9672 30.1639 21.4748 30.1639 21.3115C30.1639 21.1482 30.8616 20.6558 32.1311 20.6558C33.4006 20.6558 34.0983 21.1482 34.0983 21.3115ZM32.1311 23.2787C33.2391 23.3654 34.3283 22.9544 35.1029 22.1574L36.9999 22.9567L26.2294 27.4918L15.459 22.9567L17.356 22.1574C18.1306 22.9544 19.2198 23.3654 20.3278 23.2787C23.5285 23.2787 24.5363 21.0492 22.6832 19.9187L23.3494 19.638C24.5514 20.998 27.9081 20.9974 29.1094 19.638L29.7757 19.9187C27.9042 21.059 28.9685 23.2787 32.1311 23.2787ZM23.0026 18.3607C20.158 19.5594 20.798 19.3443 20.3278 19.3443C18.7468 19.3443 17.5081 19.9528 17.1567 20.8177L14.4262 21.9672V12.2453L25.5737 7.55149V16.7587C24.2157 16.9115 23.2131 17.5364 23.0026 18.3607ZM20.3278 20.6558C21.5973 20.6558 22.295 21.1482 22.295 21.3115C22.295 21.4748 21.5973 21.9672 20.3278 21.9672C19.0583 21.9672 18.3606 21.4748 18.3606 21.3115C18.3606 21.1482 19.0583 20.6558 20.3278 20.6558ZM1.96715 7.55149L13.1147 12.2453V21.9672L1.96715 17.2761V7.55149ZM28.1967 18.6885C28.1967 18.8518 27.499 19.3443 26.2294 19.3443C24.9599 19.3443 24.2622 18.8518 24.2622 18.6885C24.2622 18.5253 24.9599 18.0328 26.2294 18.0328C27.499 18.0328 28.1967 18.5253 28.1967 18.6885ZM21.6393 4.91805C21.6393 5.08133 20.9416 5.57379 19.6721 5.57379C18.4026 5.57379 17.7049 5.08133 17.7049 4.91805C17.7049 4.75477 18.4026 4.26231 19.6721 4.26231C20.9416 4.26231 21.6393 4.75477 21.6393 4.91805ZM13.7704 1.63936C15.0399 1.63936 15.7376 2.13182 15.7376 2.2951C15.7376 2.45838 15.0399 2.95084 13.7704 2.95084C12.5009 2.95084 11.8032 2.45838 11.8032 2.2951C11.8032 2.13182 12.5009 1.63936 13.7704 1.63936ZM10.8904 3.24461C12.0924 4.60461 15.4491 4.60395 16.6504 3.24461L17.3167 3.52526C16.7827 3.79186 16.431 4.32245 16.3934 4.91805C16.3934 7.11739 21.2721 7.57641 22.6439 5.76395L24.5403 6.56329L13.7704 11.0984L3.0006 6.56329L4.89699 5.76395C6.26748 7.57444 11.1475 7.11936 11.1475 4.91805C11.1099 4.32245 10.7581 3.79186 10.2242 3.52526L10.8904 3.24461ZM7.86879 4.26231C9.1383 4.26231 9.83601 4.75477 9.83601 4.91805C9.83601 5.08133 9.1383 5.57379 7.86879 5.57379C6.59928 5.57379 5.90158 5.08133 5.90158 4.91805C5.90158 4.75477 6.59928 4.26231 7.86879 4.26231ZM1.96715 18.699L13.5147 23.5613L25.5737 28.6387V38.0289L1.96715 28.0892V18.699Z" fill="#920D62"/>
<path d="M23.8687 34.4807L9.44247 28.2315C9.22634 28.1317 8.97311 28.1569 8.78086 28.2973C8.58861 28.4377 8.48755 28.6712 8.51683 28.9075C8.5461 29.1437 8.70111 29.3455 8.92181 29.4348L23.348 35.6833C23.5647 35.7873 23.8209 35.7644 24.0157 35.6236C24.2105 35.4829 24.3127 35.2468 24.2821 35.0084C24.2514 34.7701 24.0928 34.5676 23.8687 34.4807Z" fill="#920D62"/>
<path d="M6.16396 26.8079L4.19675 25.9554C3.86447 25.8106 3.47767 25.9625 3.33281 26.2948C3.18795 26.627 3.33988 27.0138 3.67215 27.1587L5.63937 28.0111C5.85431 28.1048 6.10292 28.0768 6.29155 27.9375C6.48018 27.7982 6.58016 27.5688 6.55385 27.3358C6.52753 27.1028 6.3789 26.9016 6.16396 26.8079Z" fill="#920D62"/>
</svg>
