<svg width="12" height="19" viewBox="0 0 12 19" fill="none" xmlns="http://www.w3.org/2000/svg"><path d="M3.39 8.6v10.077c0 .185.204.27.312.13l2.163-2.803a.166.166 0 0 1 .27 0l2.163 2.803c.108.14.312.055.312-.13V8.6H3.39z" fill="#FFA730"/><path d="M4.952 8.6H3.389v10.077c0 .185.205.27.313.13l1.25-1.62V8.6z" fill="#E58D23"/><path d="M7.86 16.66a.234.234 0 0 1-.234-.235V13.76a.234.234 0 1 1 .47 0v2.665c0 .13-.106.235-.235.235z" fill="#FFB74B"/><path d="M5.924 13.78a.618.618 0 1 0 0-1.236.618.618 0 0 0 0 1.236z" fill="#E58D23"/><path d="M5.984 12.44a.392.392 0 0 1-.331-.187 2.373 2.373 0 0 0-2.042-1.149c-.262 0-.52.043-.77.128a.393.393 0 0 1-.405-.097.387.387 0 0 1-.11-.282v-.027l.001-.03A2.375 2.375 0 0 0 .641 8.514a.39.39 0 0 1-.26-.265l-.003-.008a.392.392 0 0 1 .062-.343c.295-.392.46-.855.479-1.342a2.465 2.465 0 0 0-.461-1.509.307.307 0 0 1-.042-.272l.014-.04a24.6 24.6 0 0 1 .029-.086.305.305 0 0 1 .215-.198l.045-.011a2.383 2.383 0 0 0 1.803-2.316V2.09l-.001-.03a.389.389 0 0 1 .17-.332l.029-.02.01-.006a.389.389 0 0 1 .356-.029l.006.003A2.396 2.396 0 0 0 5.936.868a.392.392 0 0 1 .629-.006 2.37 2.37 0 0 0 2.181.94c.11-.012.228-.035.36-.07a.356.356 0 0 1 .3.054l.013.01.04.028c.094.07.149.18.145.297v.044l-.002.038a2.4 2.4 0 0 0 1.709 2.288.392.392 0 0 1 .209.6 2.371 2.371 0 0 0-.433 1.37c0 .512.16 1.001.465 1.414.073.1.095.225.059.344a.387.387 0 0 1-.24.254 2.397 2.397 0 0 0-1.573 2.234.391.391 0 0 1-.516.368 2.384 2.384 0 0 0-2.883 1.152l-.002.004a.39.39 0 0 1-.343.21h-.07z" fill="#FF624B"/><path d="M6.814 11.103c-.262 0-.521.043-.77.128a.393.393 0 0 1-.405-.097.387.387 0 0 1-.111-.282v-.027l.001-.03a2.375 2.375 0 0 0-1.686-2.282.39.39 0 0 1-.26-.265L3.58 8.24a.392.392 0 0 1 .062-.343c.295-.392.46-.855.48-1.342a2.465 2.465 0 0 0-.462-1.509.307.307 0 0 1-.041-.272l.013-.04.029-.086a.305.305 0 0 1 .215-.198l.045-.011a2.383 2.383 0 0 0 1.804-2.316l-.001-.034-.001-.03a.389.389 0 0 1 .199-.351l.01-.007a.389.389 0 0 1 .356-.029l.006.003a2.372 2.372 0 0 0 1.612.073A2.37 2.37 0 0 1 6.564.861a.392.392 0 0 0-.629.005 2.396 2.396 0 0 1-2.844.809l-.006-.003a.388.388 0 0 0-.356.029l-.01.007-.03.019a.389.389 0 0 0-.17.333l.002.03v.033A2.383 2.383 0 0 1 .718 4.44l-.045.011a.305.305 0 0 0-.215.198c-.013.038-.027.08-.03.085l-.012.04a.307.307 0 0 0 .04.273c.318.45.482.985.462 1.509a2.37 2.37 0 0 1-.48 1.342.392.392 0 0 0-.061.343l.002.008a.39.39 0 0 0 .26.265 2.375 2.375 0 0 1 1.687 2.282v.03l-.002.027a.393.393 0 0 0 .516.379 2.38 2.38 0 0 1 .77-.128c.841 0 1.604.43 2.042 1.15.07.114.198.186.33.187H6.054a.39.39 0 0 0 .343-.21l.002-.004a2.387 2.387 0 0 1 1.062-1.035 2.414 2.414 0 0 0-.646-.088z" fill="#FF4B34"/><path d="M6 10.682a4.113 4.113 0 1 0 0-8.226 4.113 4.113 0 0 0 0 8.226z" fill="#FFC34C"/><path d="M6 9.901a3.332 3.332 0 1 0 0-6.664 3.332 3.332 0 0 0 0 6.664z" fill="#FCE575"/><path d="M5.775 4.52l-.441.894a.313.313 0 0 1-.236.172l-.988.143a.25.25 0 0 0-.139.428l.715.696a.313.313 0 0 1 .09.277l-.169.984a.25.25 0 0 0 .364.264l.883-.464a.313.313 0 0 1 .292 0l.883.464a.25.25 0 0 0 .364-.264l-.17-.984a.313.313 0 0 1 .09-.277l.715-.696a.25.25 0 0 0-.138-.428l-.988-.143a.313.313 0 0 1-.236-.172l-.441-.894a.25.25 0 0 0-.45 0z" fill="#FFC34C"/><path d="M7.113 9.415a.234.234 0 0 1-.088-.452c.01-.004 1.019-.424 1.291-1.262a.234.234 0 1 1 .446.146c-.34 1.047-1.511 1.53-1.56 1.55a.235.235 0 0 1-.089.018z" fill="#FFF4C1"/><path d="M5.596 7.326a.313.313 0 0 0-.09-.278l-.714-.696a.25.25 0 0 1 .139-.427l.987-.144a.313.313 0 0 0 .236-.171l.304-.617-.233-.473a.25.25 0 0 0-.45 0l-.441.894a.313.313 0 0 1-.236.172l-.988.143a.25.25 0 0 0-.139.428l.715.696a.313.313 0 0 1 .09.277l-.169.984a.25.25 0 0 0 .364.264l.489-.257.136-.795z" fill="#FFA730"/><path d="M9.566 6.57c0 .183-.014.363-.04.54l.31.041A3.867 3.867 0 0 0 8.72 3.805l-.125.32c.602.64.971 1.5.971 2.444z" fill="#FFD551"/></svg>