<svg width="20" height="20" viewBox="0 0 20 20" fill="none" xmlns="http://www.w3.org/2000/svg"><path d="M19.935 7.659a1.429 1.429 0 0 0-1.185-1.01l-5.315-.735L11.33.888a1.444 1.444 0 0 0-2.664 0L6.564 5.914l-5.316.734a1.448 1.448 0 0 0-.763 2.515l4.005 3.571-.823 5.604c-.09.569.172 1.136.663 1.438.483.31 1.105.297 1.577-.03L10 16.965l4.092 2.785a1.445 1.445 0 0 0 2.24-1.408l-.822-5.606 4.005-3.571c.425-.375.59-.964.42-1.505z" fill="#2F80ED"/><path d="M16.97 8.573a.582.582 0 0 0-.474-.425h-.004l-3.987-.57-.285-.04-.107-.267-1.578-3.895a.57.57 0 0 0-.755-.33l7.19 5.527zm0 0l.003.007m-.002-.007l.002.007m0 0a.636.636 0 0 1-.174.652l-.003.002-3.003 2.768-.193.178.037.26.617 4.345a.65.65 0 0 1-.098.449.562.562 0 0 1-.8.162l-3.069-2.158-.288-.202-.287.202-3.069 2.157-.004.002a.54.54 0 0 1-.616.012l-.008-.005a.62.62 0 0 1-.27-.617v-.005l.617-4.343.037-.26-.193-.178-3.004-2.767a.634.634 0 0 1-.196-.382c-.048-.357.193-.66.501-.705l3.986-.569.285-.04.108-.267 1.578-3.895m7.509 5.204l-7.51-5.205m0 0a.601.601 0 0 1 .317-.33l-.316.33z" stroke="#fff"/></svg>