<svg width="24" height="24" viewBox="0 0 24 24" fill="none" xmlns="http://www.w3.org/2000/svg"><g clip-path="url(#a)"><path d="M14.417.445h-4.54c-4.38 0-7.943 3.564-7.943 7.944v3.405a7.948 7.948 0 0 0 4.54 7.179v3.791c0 .33.411.502.645.268l3.294-3.294h4.004c4.38 0 7.945-3.564 7.945-7.944V8.389c0-4.38-3.564-7.944-7.945-7.944z" fill="#665CAC"/><path d="M7.608 18.973a7.948 7.948 0 0 1-4.54-7.18V8.39c0-4.38 3.564-7.944 7.945-7.944H9.878c-4.38 0-7.944 3.564-7.944 7.944v3.405a7.948 7.948 0 0 0 4.54 7.179v3.791c0 .33.411.502.645.268l.49-.49v-3.57z" fill="#523494"/><path d="M17.86 14.545l-.34-1.842a.378.378 0 0 0-.298-.303l-2.675-.535a.379.379 0 0 0-.342.104l-1.087 1.087c-1.83-.82-2.847-1.84-3.741-3.749l1.083-1.083a.379.379 0 0 0 .103-.342l-.535-2.675a.378.378 0 0 0-.302-.298l-1.842-.34a.38.38 0 0 0-.153.003 2.64 2.64 0 0 0-1.283.71c-.612.611-.846 1.504-.677 2.581.285 1.809 1.171 4.326 2.806 5.968l.022.022c1.64 1.634 4.158 2.52 5.967 2.804.228.036.447.054.658.054.784 0 1.441-.247 1.924-.73.353-.353.598-.797.709-1.283a.382.382 0 0 0 .003-.153z" fill="#fff"/><path d="M10.09 8.593l.37-.37-.37.37zM14.204 11.968l-.373.374.374-.374z" fill="#E5E5E5"/><path d="M15.937 15.998c-.21 0-.43-.018-.658-.054-1.809-.285-4.326-1.17-5.966-2.805l-.023-.022C7.656 11.476 6.77 8.96 6.485 7.15c-.137-.87-.01-1.62.366-2.199a2.65 2.65 0 0 0-.403.33c-.612.612-.846 1.505-.677 2.582.285 1.809 1.171 4.326 2.806 5.968l.022.022c1.64 1.634 4.158 2.52 5.967 2.804.228.036.447.054.658.054.784 0 1.441-.247 1.924-.73.123-.123.234-.259.33-.403-.427.278-.948.42-1.541.42z" fill="#E5E5E5"/><path d="M12.905 6.876a.378.378 0 0 0 0 .757c.834 0 1.513.678 1.513 1.513 0 .206.172.378.378.378a.382.382 0 0 0 .378-.378 2.272 2.272 0 0 0-2.27-2.27z" fill="#fff"/><path d="M12.904 5.362c-.14 0-.281.008-.42.023a.378.378 0 0 0 .083.752 3.03 3.03 0 0 1 3.345 3.345.382.382 0 0 0 .335.418.382.382 0 0 0 .417-.335 3.787 3.787 0 0 0-3.76-4.203z" fill="#fff"/><path d="M12.905 3.85c-.136 0-.272.005-.407.015a.378.378 0 0 0 .057.754 4.545 4.545 0 0 1 4.768 5.574.382.382 0 0 0 .268.452.382.382 0 0 0 .468-.277 5.302 5.302 0 0 0-5.154-6.518z" fill="#fff"/></g><defs><clipPath id="a"><path fill="#fff" transform="translate(.8 .445)" d="M0 0h22.695v22.695H0z"/></clipPath></defs></svg>